<mxfile host="Electron" modified="2023-10-19T16:30:44.982Z" agent="Mozilla/5.0 (Windows NT 10.0; Win64; x64) AppleWebKit/537.36 (KHTML, like Gecko) draw.io/21.6.8 Chrome/114.0.5735.289 Electron/25.5.0 Safari/537.36" etag="qXUWwq7xOCy1ophpg1Mu" version="21.6.8" type="device">
  <diagram name="Page-1" id="wccxNkne9PUYTorLG4MO">
    <mxGraphModel dx="714" dy="423" grid="1" gridSize="10" guides="1" tooltips="1" connect="1" arrows="1" fold="1" page="1" pageScale="1" pageWidth="850" pageHeight="1100" math="0" shadow="0">
      <root>
        <mxCell id="0" />
        <mxCell id="1" parent="0" />
        <mxCell id="xhcANRMV3074UTPc4fIj-1" value="«class»&lt;br&gt;&lt;b&gt;CPU_Context&lt;/b&gt;" style="html=1;whiteSpace=wrap;fontFamily=Computer Modern;shadow=1;" parent="1" vertex="1">
          <mxGeometry x="280" y="270" width="110" height="50" as="geometry" />
        </mxCell>
        <mxCell id="xhcANRMV3074UTPc4fIj-2" value="«class»&lt;br&gt;&lt;b&gt;CPU_Core&lt;/b&gt;" style="html=1;whiteSpace=wrap;fontFamily=Computer Modern;shadow=1;" parent="1" vertex="1">
          <mxGeometry x="440" y="270" width="110" height="50" as="geometry" />
        </mxCell>
        <mxCell id="xhcANRMV3074UTPc4fIj-3" value="" style="endArrow=diamondThin;endFill=1;endSize=24;html=1;rounded=0;exitX=1;exitY=0.5;exitDx=0;exitDy=0;entryX=0;entryY=0.5;entryDx=0;entryDy=0;fontFamily=Computer Modern;" parent="1" source="xhcANRMV3074UTPc4fIj-1" target="xhcANRMV3074UTPc4fIj-2" edge="1">
          <mxGeometry width="160" relative="1" as="geometry">
            <mxPoint x="410" y="340" as="sourcePoint" />
            <mxPoint x="570" y="340" as="targetPoint" />
          </mxGeometry>
        </mxCell>
        <mxCell id="xhcANRMV3074UTPc4fIj-4" value="&lt;div style=&quot;&quot;&gt;&amp;nbsp; contains:&lt;/div&gt;&lt;div style=&quot;&quot;&gt;&amp;nbsp; - current CPU mode&lt;/div&gt;&lt;div style=&quot;&quot;&gt;&amp;nbsp; - registers of different CPU modes&lt;/div&gt;&lt;div style=&quot;&quot;&gt;&amp;nbsp; &amp;nbsp; (bank, CPSR, and SPSR)&lt;/div&gt;" style="shape=note;size=20;whiteSpace=wrap;html=1;align=left;fontFamily=Computer Modern;shadow=1;" parent="1" vertex="1">
          <mxGeometry x="180" y="160" width="180" height="80" as="geometry" />
        </mxCell>
        <mxCell id="xhcANRMV3074UTPc4fIj-5" value="" style="endArrow=none;dashed=1;html=1;rounded=0;entryX=0.5;entryY=1;entryDx=0;entryDy=0;entryPerimeter=0;exitX=0.25;exitY=0;exitDx=0;exitDy=0;" parent="1" source="xhcANRMV3074UTPc4fIj-1" target="xhcANRMV3074UTPc4fIj-4" edge="1">
          <mxGeometry width="50" height="50" relative="1" as="geometry">
            <mxPoint x="180" y="390" as="sourcePoint" />
            <mxPoint x="230" y="340" as="targetPoint" />
          </mxGeometry>
        </mxCell>
        <mxCell id="8U7Tuycl8OMK1O564prr-1" value="&lt;div style=&quot;&quot;&gt;&amp;nbsp; Provides a unified interface&lt;/div&gt;" style="shape=note;size=20;whiteSpace=wrap;html=1;align=left;fontFamily=Computer Modern;shadow=1;" vertex="1" parent="1">
          <mxGeometry x="380" y="210" width="170" height="30" as="geometry" />
        </mxCell>
        <mxCell id="8U7Tuycl8OMK1O564prr-2" value="" style="endArrow=none;dashed=1;html=1;rounded=0;entryX=0.5;entryY=1;entryDx=0;entryDy=0;entryPerimeter=0;" edge="1" parent="1" target="8U7Tuycl8OMK1O564prr-1">
          <mxGeometry width="50" height="50" relative="1" as="geometry">
            <mxPoint x="400" y="290" as="sourcePoint" />
            <mxPoint x="440" y="230" as="targetPoint" />
          </mxGeometry>
        </mxCell>
      </root>
    </mxGraphModel>
  </diagram>
</mxfile>
